<svg width="200" height="200" viewBox="0 0 200 200" fill="none" xmlns="http://www.w3.org/2000/svg">
<circle cx="100" cy="101" r="88.5" stroke="#02478C" stroke-width="7"/>
<circle cx="100" cy="101" r="74" fill="#E6EDF4"/>
<path fill-rule="evenodd" clip-rule="evenodd" d="M102.671 58.2466C102.054 58.5704 101.395 59.1948 101.123 59.7145C100.984 59.9785 100.625 60.2587 100.182 60.4478C99.3519 60.8024 99.1656 60.8858 96.7181 61.9988C95.7106 62.4569 93.8216 63.3107 92.5202 63.8961C91.2189 64.4813 89.2287 65.3778 88.0977 65.8881L86.0411 66.8158L71.6118 66.8181C56.1314 66.8206 56.1523 66.8195 54.6318 67.5924C53.8041 68.0131 52.4448 69.3028 51.9599 70.1273C51.1206 71.5541 51 72.3133 51 76.1697C51 79.2168 51.0406 79.8466 51.2876 80.6375C51.6924 81.9335 52.2277 82.7745 53.228 83.6854C54.9049 85.2124 56.0363 85.517 60.0444 85.521L62.7539 85.5236V94.7322V103.941L63.1322 104.318L63.5104 104.695L68.4086 104.683C71.5846 104.676 73.4347 104.614 73.6707 104.507C74.2158 104.259 74.3551 103.631 74.3551 101.421V99.4169L74.7749 99.4773C75.054 99.5174 75.31 99.4301 75.5382 99.2169C76.2405 98.5609 75.7754 97.387 74.8131 97.387H74.3551V93.1495V88.9118L74.702 88.978C74.9083 89.0172 75.2174 88.9118 75.4652 88.7176C76.2545 88.099 75.8235 86.8924 74.8131 86.8924C74.3721 86.8924 74.3551 86.867 74.3551 86.208V85.5236H80.229H86.1029L88.9681 86.5162C90.5439 87.062 92.2455 87.6514 92.7492 87.8257C93.253 88.0001 93.7118 88.1866 93.7688 88.2402C93.8258 88.2935 93.7591 88.7138 93.6205 89.1739C93.3932 89.9284 93.3644 91.8573 93.3265 108.87C93.3035 119.243 93.2843 127.781 93.2839 127.844C93.2836 127.907 90.8912 127.958 87.9674 127.958H82.6514L82.2812 128.352C81.9117 128.744 81.9112 128.749 81.9185 132.192C81.9243 134.953 81.9779 135.832 82.1878 136.61C82.799 138.876 84.3499 140.841 86.3719 141.912C88.5868 143.084 87.3041 143.027 110.456 142.981L131.064 142.94L132.067 142.6C134.913 141.635 137.257 139.039 137.843 136.202C137.935 135.755 138.009 133.813 138.009 131.844V128.292L138.447 128.14C138.733 128.041 138.943 127.821 139.054 127.506C139.204 127.077 139.181 126.983 138.852 126.654C138.648 126.451 138.375 126.285 138.245 126.285C138.039 126.285 138.009 125.812 138.009 122.493C138.009 118.73 138.012 118.701 138.338 118.653C138.518 118.626 138.797 118.429 138.957 118.213C139.209 117.877 139.223 117.765 139.058 117.405C138.938 117.141 138.71 116.957 138.438 116.903L138.009 116.817L138.013 113.072L138.016 109.327L138.497 109.098C139.356 108.691 139.339 107.706 138.467 107.379L138.009 107.207V103.469V99.7314L138.491 99.5859C139.089 99.405 139.282 98.9387 138.989 98.3773C138.87 98.1481 138.773 97.9343 138.773 97.902C138.773 97.8698 140.657 97.8433 142.961 97.8433H147.15L146.931 98.2616C146.639 98.8192 146.653 99.0033 147.016 99.3643C147.358 99.7051 148.116 99.769 148.358 99.4774C148.7 99.0672 148.731 98.4879 148.427 98.1852C148.137 97.8961 148.139 97.8862 148.567 97.4092L149 96.9259V93.8303C149 90.0822 148.773 88.5442 147.978 86.8968C146.98 84.8294 144.977 83.2913 142.818 82.9351C142.253 82.8418 136.249 82.7866 127.171 82.7912C119.07 82.7951 111.823 82.7956 111.067 82.7921L109.693 82.7859V71.6449C109.693 60.513 109.693 60.5034 109.363 59.8955C108.924 59.0873 108.508 58.6661 107.785 58.2987C107.273 58.0383 106.893 57.9952 105.158 58.0004C103.614 58.0051 103.02 58.0638 102.671 58.2466ZM107.111 60.6265L107.48 61.0533V75.243C107.48 85.3446 107.43 89.5737 107.308 89.9225C107.087 90.5544 106.69 90.6948 105.121 90.6948C104.136 90.6948 103.777 90.6349 103.525 90.4287L103.2 90.1625L103.241 75.3376L103.282 60.5129L103.664 60.3129C103.917 60.1799 104.497 60.1274 105.394 60.1563C106.658 60.197 106.766 60.2266 107.111 60.6265ZM122.134 62.06C122.008 62.1079 121.055 62.5474 120.017 63.0366C118.978 63.5259 118.079 63.926 118.018 63.926C117.743 63.926 117.402 64.5305 117.402 65.0172C117.402 65.6687 117.784 66.0554 118.428 66.0554C119.054 66.0554 123.28 64.0457 123.495 63.6459C123.764 63.1455 123.687 62.7192 123.257 62.3217C122.858 61.9537 122.582 61.8893 122.134 62.06ZM100.763 75.4092C100.763 85.6506 100.725 88.1092 100.567 88.1092C100.459 88.1092 99.9956 87.9786 99.5367 87.8187C99.0779 87.659 96.5044 86.7607 93.8178 85.8228C91.1312 84.8846 88.641 84.0165 88.2843 83.8934L87.6355 83.6698V76.1011V68.5324L90.6503 67.1889C92.3085 66.4501 95.2107 65.1436 97.0997 64.2856C98.9887 63.4278 100.586 62.722 100.649 62.7175C100.712 62.7131 100.763 68.4243 100.763 75.4092ZM85.0405 76.1697V83.2421H71.0786C58.6948 83.2421 57.0354 83.2148 56.3989 82.9994C55.4057 82.6634 54.6097 82.1078 54.1267 81.4132C53.3425 80.2857 53.2705 79.8267 53.2816 76.0269L53.2917 72.5194L53.7541 71.5773C54.2899 70.4853 55.0986 69.7723 56.2517 69.3752C56.972 69.1271 58.065 69.1069 71.035 69.1023L85.0405 69.0973V76.1697ZM119.495 75.7735C117.933 75.8696 117.809 75.9288 117.61 76.6773C117.547 76.9116 117.618 77.1707 117.818 77.4377L118.121 77.8428L120.887 77.8841C123.49 77.9232 123.672 77.9076 123.962 77.618C124.349 77.2324 124.359 76.5401 123.984 76.0786C123.726 75.7609 123.561 75.7233 122.343 75.7035C121.598 75.6915 120.317 75.723 119.495 75.7735ZM69.4597 78.5917C69.244 78.7131 68.9445 79.0839 68.7943 79.4157C68.5617 79.9298 68.5487 80.1018 68.7062 80.5777C69.0323 81.5621 70.1821 81.9915 71.1526 81.4915C71.7188 81.1998 71.9128 80.8346 71.9128 80.0606C71.9128 78.8408 70.5098 78.0006 69.4597 78.5917ZM74.2484 78.6653C73.2478 79.2889 73.2579 80.8216 74.2666 81.4345C74.9732 81.8637 75.6247 81.8032 76.2579 81.2491C76.7213 80.8438 76.7975 80.6831 76.7975 80.1108C76.7975 78.7845 75.3628 77.9708 74.2484 78.6653ZM131.984 85.4716L136.416 85.571L136.074 86.2821C135.324 87.8444 135.346 87.0124 135.394 111.608C135.424 127.576 135.388 134.977 135.275 135.538C135.061 136.602 134.462 137.779 133.763 138.505C133.14 139.152 131.825 139.97 131.402 139.972C130.903 139.975 129.685 139.248 129.07 138.58C127.54 136.921 127.324 136.091 127.324 131.874C127.324 128.712 127.323 128.704 126.949 128.332L126.575 127.958H111.303H96.0312V109.154C96.0312 90.6824 96.0666 89.1739 96.5002 89.1739C96.9405 89.1739 100.729 90.6347 100.916 90.8766C102.206 92.5454 102.743 92.8417 104.656 92.9417C107.171 93.0734 108.629 92.4801 109.328 91.0404C109.631 90.4173 109.681 90.0308 109.741 87.8514L109.809 85.3715L118.681 85.3718C123.561 85.3719 129.547 85.4168 131.984 85.4716ZM142.613 85.5789C144.24 85.9602 145.397 87.1533 145.945 89.0136C146.171 89.7803 146.251 90.6159 146.294 92.634L146.349 95.2577H142.179H138.009V92.1717C138.009 88.7965 138.178 87.7107 138.852 86.7372C139.26 86.1485 139.947 85.6868 140.67 85.5143C141.372 85.347 141.666 85.3567 142.613 85.5789ZM118.455 86.7838C117.896 87.2076 117.989 88.4012 118.599 88.6446C119.877 89.1539 123.18 90.2385 123.454 90.2385C123.915 90.2385 124.424 89.6737 124.424 89.162C124.424 88.4183 124.001 88.1433 121.633 87.3471C119.268 86.5519 118.856 86.4789 118.455 86.7838ZM79.8505 92.1715C79.0758 92.4555 78.8402 93.3385 79.3925 93.8888C79.6961 94.1913 80.3847 94.2899 80.7053 94.0767C81.3064 93.6768 81.2928 92.6994 80.6809 92.2999C80.2985 92.0503 80.2164 92.0375 79.8505 92.1715ZM100.953 95.9397C100.106 96.309 99.9362 97.4634 100.635 98.0937C100.93 98.3591 101.335 98.3756 107.509 98.3756H114.07L114.439 97.9489C114.909 97.4035 114.909 96.7622 114.439 96.2168L114.07 95.79L107.76 95.7564C102.576 95.7287 101.361 95.7614 100.953 95.9397ZM100.815 102.548C100.258 102.887 100.088 103.289 100.231 103.936C100.44 104.886 99.7101 104.839 114.513 104.852C121.937 104.858 128.121 104.821 128.257 104.768C128.722 104.586 128.983 103.806 128.804 103.131C128.563 102.224 129.055 102.254 114.547 102.255C101.733 102.255 101.282 102.265 100.815 102.548ZM142.283 102.862C141.58 103.564 142.143 104.476 143.234 104.401C143.602 104.376 144.01 103.707 143.889 103.327C143.641 102.549 142.833 102.315 142.283 102.862ZM79.3292 103C78.9628 103.404 79.0593 104.249 79.4963 104.465C79.6793 104.555 80.0689 104.601 80.3618 104.567C80.7726 104.519 80.9353 104.407 81.0723 104.078C81.2554 103.637 81.0933 103.085 80.7053 102.827C80.38 102.61 79.5933 102.71 79.3292 103ZM100.599 109.239C100.123 109.713 100.044 110.132 100.33 110.667C100.719 111.395 100.211 111.37 114.519 111.375C127.976 111.38 128.048 111.378 128.448 111.065C128.773 110.81 128.85 110.621 128.85 110.087C128.85 109.553 128.773 109.364 128.448 109.109C128.048 108.796 127.972 108.794 114.546 108.794H101.045L100.599 109.239ZM142.384 112.301C142.144 112.489 141.978 112.769 141.978 112.988C141.978 113.466 142.485 113.965 142.97 113.965C143.421 113.965 143.963 113.477 143.963 113.07C143.963 112.705 143.524 112.194 143.109 112.075C142.905 112.016 142.643 112.098 142.384 112.301ZM100.548 115.802C100.047 116.395 100.048 116.86 100.55 117.454L100.947 117.925L114.577 117.884C127.736 117.845 128.219 117.834 128.529 117.554C129.022 117.11 128.977 116.064 128.448 115.65C128.048 115.336 127.973 115.334 114.495 115.334H100.943L100.548 115.802ZM124.729 133.07C124.729 135.855 124.899 136.831 125.64 138.289C125.877 138.755 126.291 139.411 126.559 139.746L127.046 140.354L108.829 140.395C97.4905 140.421 90.243 140.38 89.6347 140.288C87.6407 139.984 85.9993 138.761 85.1293 136.932C84.6671 135.961 84.658 135.896 84.6084 133.244L84.5578 130.544H104.643H124.729V133.07Z" fill="#02478C"/>
</svg>
