<svg width="200" height="200" viewBox="0 0 200 200" fill="none" xmlns="http://www.w3.org/2000/svg">
<circle cx="100" cy="101" r="88.5" stroke="#02478C" stroke-width="7"/>
<circle cx="100" cy="101" r="74" fill="#E6EDF4"/>
<path fill-rule="evenodd" clip-rule="evenodd" d="M89.7365 56.7382C89.2869 57.4222 89.2869 57.5308 89.7365 58.2147C90.0035 58.6208 90.3855 58.9683 90.5856 58.9869C90.7856 59.0058 91.0826 59.0519 91.2456 59.0897C91.4086 59.1275 103.545 59.1786 118.215 59.2034L144.888 59.2483V94.1956C144.888 131.756 144.821 130.12 146.36 130.12C146.723 130.12 147.24 129.877 147.51 129.58C147.96 129.084 148 126.121 148 93.0085C148 58.4773 147.977 56.9571 147.458 56.4887C146.962 56.041 144.53 56 118.569 56H90.2219L89.7365 56.7382ZM84.1787 62.4461C83.7436 62.925 83.6882 64.0599 83.6882 72.4758C83.6882 81.5556 83.7131 81.9785 84.2614 82.2712C85.0654 82.6999 85.6448 82.6521 86.1863 82.1129C86.5873 81.713 86.6519 80.5053 86.6519 73.4016V65.1542H112.88H139.109V99.1135V133.073H123.003C107.776 133.073 106.87 133.102 106.406 133.613C105.82 134.258 105.784 134.847 106.289 135.535C106.635 136.007 107.926 136.043 123.972 136.03C136.179 136.021 141.398 135.921 141.677 135.69C142.003 135.42 142.073 128.976 142.073 99.094V62.8252L141.414 62.3657C140.829 61.9573 137.614 61.906 112.712 61.906C85.921 61.906 84.6473 61.9302 84.1787 62.4461ZM95.2465 72.832C94.9205 73.1568 94.6538 73.6219 94.6538 73.8655C94.6538 74.1091 94.9205 74.5742 95.2465 74.899C95.8254 75.4758 96.2343 75.4896 112.824 75.4896C125.962 75.4896 129.915 75.4061 130.28 75.1205C131.095 74.4821 131.201 73.5162 130.529 72.847C129.931 72.2505 129.668 72.2414 112.88 72.2414C96.2343 72.2414 95.8257 72.255 95.2465 72.832ZM95.0711 80.9526C94.6215 81.6366 94.6215 81.7452 95.0711 82.4291L95.5566 83.1674H112.88H130.204L130.69 82.4291C131.139 81.7452 131.139 81.6366 130.69 80.9526L130.204 80.2144H112.88H95.5566L95.0711 80.9526ZM85.4664 84.7903C79.128 86.0613 73.3497 89.9702 69.8001 95.388C67.1304 99.4628 65.9023 103.69 65.9112 108.772C65.9174 112.163 66.4123 114.749 67.631 117.757L68.5121 119.932L62.0628 126.428C57.1254 131.402 55.5208 133.202 55.2176 134.106C54.6791 135.713 54.7375 138.327 55.338 139.481C56.0291 140.809 55.9651 140.979 54.8214 140.853C52.6461 140.615 51.2481 142.116 52.4321 143.42C52.9492 143.989 53.6039 143.999 92.3078 143.999C135.259 143.999 132.589 144.105 132.589 142.39C132.589 140.836 133.99 140.903 100.192 140.826C82.9123 140.786 68.7344 140.714 68.6849 140.664C68.6354 140.615 70.9076 138.273 73.7344 135.46L78.874 130.346L80.806 131.116C84.2492 132.488 86.4966 132.896 90.5047 132.873C93.6121 132.856 94.6298 132.727 96.8194 132.073C101.36 130.717 104.542 128.799 107.731 125.495C112.495 120.561 114.595 115.261 114.557 108.268C114.511 99.663 109.798 91.7295 102.182 87.4338C97.3831 84.7277 90.8956 83.7016 85.4664 84.7903ZM95.7797 88.2152C108.645 91.5996 115.178 105.9 109.325 117.865C107.089 122.438 104.195 125.327 99.5439 127.631C98.0769 128.357 95.943 129.146 94.802 129.383C90.9753 130.178 86.314 129.873 82.9085 128.603L81.3546 128.024L82.0677 126.977C82.4601 126.401 82.9381 125.497 83.1298 124.969L83.4787 124.007L85.2418 124.554C94.2362 127.343 103.686 122.236 106.385 113.127C107.12 110.647 107.058 106.36 106.25 103.838C103.985 96.7661 97.5478 92.0263 90.2083 92.0263C82.6649 92.0263 75.9966 97.15 74.0488 104.442C73.4131 106.823 73.4855 111.062 74.2006 113.335C74.5245 114.365 74.7912 115.237 74.7933 115.273C74.7954 115.309 74.1345 115.622 73.3245 115.97C72.5148 116.317 71.6984 116.786 71.5102 117.011C70.9402 117.696 70.7574 117.5 70.1003 115.506C66.7123 105.223 71.2674 94.2971 80.8727 89.6684C85.7844 87.3015 90.5435 86.8376 95.7797 88.2152ZM110.065 88.4827C109.739 88.8076 109.472 89.2727 109.472 89.5163C109.472 89.7599 109.739 90.225 110.065 90.5498C110.633 91.1162 111.053 91.1404 120.29 91.1404C129.607 91.1404 129.941 91.1206 130.529 90.5348C130.948 90.1172 131.077 89.7274 130.944 89.2797C130.538 87.9158 130.355 87.8921 120.233 87.8921C111.053 87.8921 110.633 87.9167 110.065 88.4827ZM92.9556 95.4131C97.9805 96.4741 102.124 100.346 103.381 105.155C105.221 112.195 101.362 119.2 94.3414 121.563C92.7716 122.091 91.9284 122.187 89.612 122.095C87.0953 121.996 86.544 121.866 84.4691 120.884C83.1906 120.279 81.8996 119.784 81.5997 119.784C80.774 119.784 80.154 120.872 80.3375 121.999C80.606 123.648 79.9599 124.843 77.4624 127.316L75.0921 129.664L72.121 126.718L69.1496 123.771L71.7822 121.187L74.4152 118.603H76.3774C78.163 118.603 78.3853 118.534 78.8441 117.837C79.3328 117.093 79.32 117.019 78.4173 115.383C76.6379 112.157 76.1649 108.781 77.0291 105.475C78.3678 100.353 82.3148 96.5125 87.3638 95.4181C89.7285 94.9055 90.547 94.9046 92.9556 95.4131ZM114.955 96.5618C114.493 97.2652 114.615 98.1729 115.23 98.5923C115.405 98.7116 118.845 98.8111 122.876 98.8137L130.204 98.8182L130.69 98.0799C131.139 97.396 131.139 97.2873 130.69 96.6034L130.204 95.8652H122.809H115.413L114.955 96.5618ZM116.651 104.003C115.883 104.539 115.79 105.661 116.458 106.327C116.853 106.721 117.91 106.791 123.423 106.791C129.527 106.791 129.958 106.755 130.514 106.201C131.282 105.436 131.261 105.146 130.379 104.268C129.654 103.545 129.638 103.543 123.481 103.543C118.375 103.543 117.196 103.622 116.651 104.003ZM116.458 111.98C115.79 112.646 115.883 113.768 116.651 114.304C117.194 114.684 118.358 114.764 123.305 114.764C129.443 114.764 130.775 114.56 130.846 113.609C130.997 111.591 130.73 111.516 123.366 111.516C117.904 111.516 116.853 111.587 116.458 111.98ZM115.351 120.215C115.085 120.797 115.117 121.091 115.512 121.692L116.006 122.442H123.105H130.204L130.69 121.704C131.139 121.02 131.139 120.911 130.69 120.227L130.204 119.489H122.944H115.683L115.351 120.215ZM68.8669 135.897C64.558 140.217 63.7047 140.831 62.0125 140.831C59.1656 140.831 56.9861 137.496 58.2326 135.046C58.4131 134.692 60.4456 132.507 62.7492 130.193L66.9378 125.983L69.9012 128.936L72.8649 131.889L68.8669 135.897Z" fill="#02478C"/>
</svg>
