<svg width="200" height="200" viewBox="0 0 200 200" fill="none" xmlns="http://www.w3.org/2000/svg">
<circle cx="100" cy="101" r="88.5" stroke="#02478C" stroke-width="7"/>
<circle cx="100" cy="101" r="74" fill="#E6EDF4"/>
<path fill-rule="evenodd" clip-rule="evenodd" d="M74.7578 58.1379C73.6572 58.3988 72.0506 59.3466 71.2685 60.1967C70.871 60.6288 70.2934 61.5157 69.9853 62.1673L69.4249 63.3522L69.3785 97.544L69.3319 131.736H64.1025H58.8732L58.4192 132.191C57.9673 132.643 57.9655 132.658 58.0305 135.174C58.0951 137.679 58.102 137.716 58.7554 139.04C59.5501 140.652 60.5767 141.658 62.2217 142.439L63.4045 143H94.8342H126.264L127.447 142.439C129.092 141.658 130.118 140.652 130.915 139.038L131.576 137.698L131.631 131.733L131.686 125.769L134.818 125.37C142.093 124.443 142.16 124.431 142.592 123.998C142.984 123.605 142.997 123.488 142.997 120.411C142.997 116.795 142.927 116.579 141.669 116.312C141.279 116.229 138.869 115.898 136.313 115.577L131.664 114.993V92.1439V69.2948H136.896H142.128L142.582 68.84C143.034 68.3873 143.035 68.3736 142.968 65.8687C142.904 63.4867 142.871 63.2889 142.344 62.1673C141.571 60.5211 140.566 59.4921 138.953 58.6931L137.615 58.0306L106.53 58.0029C88.1594 57.9864 75.164 58.0417 74.7578 58.1379ZM129.776 61.5814C128.798 63.3352 128.836 62.2072 128.834 89.3841C128.831 113.834 128.822 114.529 128.5 114.529C128.318 114.529 126.625 114.333 124.737 114.094C115.394 112.911 108.738 113.01 100.058 114.463C98.3195 114.754 97.2399 115.023 96.9334 115.242L96.465 115.577L91.5328 113.714C88.6177 112.613 86.4196 111.878 86.1578 111.916C85.9144 111.951 83.3441 113.68 80.446 115.757C75.0301 119.64 74.826 119.832 75.0703 120.807C75.1969 121.312 85.4448 128.746 86.1578 128.85C86.4196 128.888 88.6159 128.152 91.5301 127.05L96.4597 125.186L96.9307 125.525C97.2478 125.753 98.2984 126.012 100.146 126.316C108.61 127.712 115.775 127.816 124.699 126.672C126.566 126.433 128.259 126.237 128.462 126.237C128.828 126.237 128.831 126.285 128.831 131.405C128.831 134.944 128.764 136.803 128.616 137.303C128.329 138.277 126.862 139.747 125.889 140.035C124.229 140.526 122.905 140.18 121.654 138.926C120.535 137.805 120.332 137.139 120.332 134.59C120.332 132.721 120.307 132.582 119.897 132.171L119.463 131.736H95.8161H72.1694V98.0968C72.1694 72.204 72.219 64.2896 72.3847 63.7276C72.6512 62.824 74.1335 61.2864 75.0025 61.0119C75.442 60.8732 83.5594 60.811 102.923 60.7982L130.223 60.7801L129.776 61.5814ZM137.222 60.9958C138.194 61.2837 139.661 62.7532 139.948 63.7276C140.067 64.1292 140.164 64.9074 140.164 65.4571V66.4566H135.914H131.664V65.4571C131.664 63.9183 131.983 63.1101 132.986 62.1025C134.229 60.8555 135.567 60.5059 137.222 60.9958ZM99.2034 65.6452C96.3359 67.6875 92.5606 68.9957 88.821 69.2426C87.3695 69.3384 87.0889 69.4103 86.7195 69.7803L86.2931 70.2074L86.3797 74.1416C86.4562 77.6161 86.5189 78.2748 86.9157 79.7819C88.1738 84.5582 91.2355 88.6659 95.3654 91.1181C96.6302 91.869 100.093 93.4197 100.506 93.4197C101.047 93.4197 105.03 91.5444 106.388 90.6503C107.094 90.1852 108.359 89.1214 109.198 88.2862C111.617 85.8793 113.209 83.1097 114.085 79.7819C114.482 78.2748 114.545 77.6161 114.621 74.1416L114.708 70.2074L114.281 69.7803C113.912 69.4103 113.631 69.3384 112.18 69.2426C108.452 68.9964 105.013 67.821 102.005 65.7646C101.421 65.3651 100.744 65.0381 100.5 65.0378C100.256 65.0376 99.6726 65.311 99.2034 65.6452ZM101.12 68.5959C103.41 70.1613 108.557 71.9478 110.807 71.9583C111.882 71.9634 111.891 71.9918 111.786 74.9968C111.718 76.9521 111.585 78.1211 111.316 79.1399C110.042 83.97 106.745 87.6838 101.78 89.8847L100.491 90.4557L98.8862 89.7235C94.9948 87.9476 92.3561 85.4166 90.6623 81.8346C89.6652 79.7265 89.3208 78.0842 89.2153 74.9361L89.1218 72.1515L89.5434 72.0691C89.7752 72.0241 90.5624 71.9038 91.2928 71.8022C93.9528 71.4318 97.7682 70.0258 99.7211 68.6963C100.098 68.4401 100.447 68.231 100.497 68.2317C100.548 68.2322 100.828 68.3961 101.12 68.5959ZM99.0839 73.5521V74.9712H100.5H101.917V73.5521V72.133H100.5H99.0839V73.5521ZM92.0011 76.3903V77.8095H93.4177H94.8342V76.3903V74.9712H93.4177H92.0011V76.3903ZM106.167 76.3903V77.8095H107.583H109V76.3903V74.9712H107.583H106.167V76.3903ZM94.8342 83.4859V84.905H96.2508H97.6673V83.4859V82.0668H96.2508H94.8342V83.4859ZM103.334 83.4859V84.905H104.75H106.167V83.4859V82.0668H104.75H103.334V83.4859ZM79.2522 92.0006V93.4197H84.2101H89.168V92.0006V90.5815H84.2101H79.2522V92.0006ZM111.833 92.0006V93.4197H116.791H121.749V92.0006V90.5815H116.791H111.833V92.0006ZM79.2522 99.0962V100.515H100.5H121.749V99.0962V97.6771H100.5H79.2522V99.0962ZM79.2522 106.192V107.611H87.0432H94.8342V106.192V104.773H87.0432H79.2522V106.192ZM97.6673 106.192V107.611H109.708H121.749V106.192V104.773H109.708H97.6673V106.192ZM91.4109 116.701L96.2508 118.518V120.383V122.248L91.4023 124.068L86.5536 125.889L83.7479 123.89L80.9421 121.891L82.3672 121.84C83.7807 121.789 83.7977 121.794 84.449 122.409C85.6065 123.503 87.1801 123.481 88.3036 122.355C90.2929 120.362 88.5109 117.096 85.7203 117.621C85.378 117.685 84.8146 118.011 84.449 118.357C83.7977 118.972 83.7807 118.977 82.3666 118.926L80.9409 118.875L83.6821 116.897C85.1898 115.809 86.4567 114.911 86.4973 114.901C86.5378 114.892 88.7489 115.702 91.4109 116.701ZM121.483 116.556C124.253 116.877 138.774 118.743 139.588 118.882L140.164 118.98V120.383V121.786L139.588 121.884C138.615 122.05 122.656 124.082 120.775 124.28C116.496 124.729 107.747 124.664 105.256 124.165L104.75 124.064V120.372V116.68L105.503 116.567C108.687 116.091 117.427 116.085 121.483 116.556ZM101.917 120.383C101.917 122.237 101.892 123.753 101.861 123.753C101.711 123.753 99.6648 123.367 99.3937 123.288C99.1154 123.206 99.0839 122.91 99.0839 120.374C99.0839 117.594 99.0899 117.55 99.4823 117.455C100.021 117.323 101.422 117.056 101.696 117.032C101.866 117.017 101.917 117.794 101.917 120.383ZM117.541 136.183C117.619 137.554 117.724 137.975 118.242 139.022L118.851 140.25H91.6794C70.8637 140.25 64.3375 140.2 63.7792 140.035C63.3201 139.899 62.7207 139.489 62.159 138.926C61.1554 137.921 60.837 137.113 60.837 135.573V134.574H89.1434H117.45L117.541 136.183Z" fill="#02478C"/>
</svg>
